# xmcd CD database file
#
# Track frame offsets:
#	183
#	10545
#	23458
#	42683
#	54270
#	72108
#	86395
#	101845
#	114033
#	127770
#
# Disc length: 1894 seconds
#
# Revision: 0
# Processed by: cddbd v1.5.2PL0 Copyright (c) Steve Scherf et al.
# Submitted via: CDex 1.70beta2
#
DISCID=6807640a
DTITLE=Vari - Una Rotonda Sul Mare 3
DYEAR=1995
DGENRE=Italian Revival
TTITLE0=Rocky Roberts - Stasera mi butto (nuova versione)
TTITLE1=Sergio Leonardi - Non ti scordar di me (nuova versione)
TTITLE2=Donatello - Malattia d'amore (nuova versione)
TTITLE3=Edoardo Vianello - Abbronzatissima (nuova versione)
TTITLE4=Renato dei Profeti - Ho difeso il mio amore (nuova versione)
TTITLE5=Patty Pravo - Il Paradiso (nuova versione)
TTITLE6=Gian Pieretti - Celeste (nuova versione)
TTITLE7=Piero Focaccia - Stessa spiaggia, stesso mare (nuova versione)
TTITLE8=Dino - La tua immagine (nuova versione)
TTITLE9=Bruno Lauzi - Ritornerai (nuova versione)
EXTD=YEAR: 1995
EXTT0=
EXTT1=
EXTT2=
EXTT3=
EXTT4=
EXTT5=
EXTT6=
EXTT7=
EXTT8=
EXTT9=
PLAYORDER=
